<svg width="24" height="24" viewBox="0 0 24 24" fill="none" xmlns="http://www.w3.org/2000/svg">
<path d="M19.298 8.09062C19.7474 7.64132 19.9999 7.03189 20 6.3964C20.0001 5.76092 19.7477 5.15143 19.2984 4.70201C18.8491 4.2526 18.2397 4.00008 17.6042 4C16.9688 3.99992 16.3593 4.25229 15.9099 4.70159L4.56566 16.0485C4.3683 16.2453 4.22235 16.4876 4.14065 16.754L3.01779 20.4533C2.99583 20.5268 2.99417 20.6049 3.01299 20.6793C3.03182 20.7537 3.07043 20.8216 3.12472 20.8758C3.17902 20.93 3.24697 20.9685 3.32138 20.9872C3.39579 21.0059 3.47387 21.0041 3.54735 20.982L7.24743 19.86C7.51363 19.779 7.75589 19.634 7.95294 19.4375L19.298 8.09062Z" stroke="black" stroke-width="2" stroke-linecap="round" stroke-linejoin="round"/>
<path d="M14 7L17 10" stroke="black" stroke-width="2" stroke-linecap="round" stroke-linejoin="round"/>
</svg>
