<svg width="24" height="24" viewBox="0 0 24 24" fill="none" xmlns="http://www.w3.org/2000/svg">
<path d="M6.3 20.3C6.52297 20.5237 6.78791 20.7013 7.07964 20.8224C7.37136 20.9435 7.68413 21.0059 8 21.0059C8.31588 21.0059 8.62864 20.9435 8.92037 20.8224C9.21209 20.7013 9.47703 20.5237 9.7 20.3L12 18L6 12L3.7 14.3C3.47626 14.523 3.29873 14.7879 3.1776 15.0796C3.05646 15.3714 2.99411 15.6841 2.99411 16C2.99411 16.3159 3.05646 16.6286 3.1776 16.9204C3.29873 17.2121 3.47626 17.477 3.7 17.7L6.3 20.3Z" stroke="black" stroke-width="2" stroke-linecap="round" stroke-linejoin="round"/>
<path d="M2 22L5 19" stroke="black" stroke-width="2" stroke-linecap="round" stroke-linejoin="round"/>
<path d="M7.5 13.5L10 11" stroke="black" stroke-width="2" stroke-linecap="round" stroke-linejoin="round"/>
<path d="M10.5 16.5L13 14" stroke="black" stroke-width="2" stroke-linecap="round" stroke-linejoin="round"/>
<path d="M18 3L14 7H20L16 11" stroke="black" stroke-width="2" stroke-linecap="round" stroke-linejoin="round"/>
</svg>
