<svg width="30" height="32" viewBox="0 0 30 32" fill="none" xmlns="http://www.w3.org/2000/svg">
<circle cx="15.08" cy="14" r="12.8333" fill="#FEF3C7" stroke="#FDFDFD"/>
<g filter="url(#filter0_dd_38_303)">
<path d="M14.208 20.216C12.936 20.216 11.808 19.94 10.824 19.388C9.85202 18.824 9.09002 18.056 8.53802 17.084C7.98602 16.1 7.71002 14.972 7.71002 13.7C7.71002 12.752 7.86602 11.882 8.17802 11.09C8.50202 10.286 8.94602 9.596 9.51002 9.02C10.086 8.432 10.764 7.982 11.544 7.67C12.336 7.346 13.206 7.184 14.154 7.184C15.426 7.184 16.542 7.466 17.502 8.03C18.474 8.582 19.236 9.35 19.788 10.334C20.34 11.306 20.616 12.434 20.616 13.718C20.616 14.978 20.34 16.1 19.788 17.084C19.248 18.056 18.492 18.824 17.52 19.388C16.56 19.94 15.456 20.216 14.208 20.216ZM18.924 20.756L14.28 16.04L15.864 14.546L20.472 19.226L18.924 20.756ZM14.208 17.966C14.976 17.966 15.648 17.786 16.224 17.426C16.812 17.054 17.268 16.55 17.592 15.914C17.928 15.278 18.096 14.54 18.096 13.7C18.096 12.872 17.928 12.14 17.592 11.504C17.256 10.856 16.794 10.352 16.206 9.992C15.618 9.62 14.934 9.434 14.154 9.434C13.398 9.434 12.72 9.62 12.12 9.992C11.532 10.352 11.07 10.856 10.734 11.504C10.398 12.14 10.23 12.872 10.23 13.7C10.23 14.54 10.398 15.278 10.734 15.914C11.07 16.55 11.538 17.054 12.138 17.426C12.738 17.786 13.428 17.966 14.208 17.966Z" fill="black"/>
</g>
<defs>
<filter id="filter0_dd_38_303" x="-2.38419e-06" y="2.77827" width="28.3261" height="28.992" filterUnits="userSpaceOnUse" color-interpolation-filters="sRGB">
<feFlood flood-opacity="0" result="BackgroundImageFix"/>
<feColorMatrix in="SourceAlpha" type="matrix" values="0 0 0 0 0 0 0 0 0 0 0 0 0 0 0 0 0 0 127 0" result="hardAlpha"/>
<feOffset dy="1.10143"/>
<feGaussianBlur stdDeviation="0.826074"/>
<feColorMatrix type="matrix" values="0 0 0 0 0 0 0 0 0 0 0 0 0 0 0 0 0 0 0.3 0"/>
<feBlend mode="normal" in2="BackgroundImageFix" result="effect1_dropShadow_38_303"/>
<feColorMatrix in="SourceAlpha" type="matrix" values="0 0 0 0 0 0 0 0 0 0 0 0 0 0 0 0 0 0 127 0" result="hardAlpha"/>
<feMorphology radius="2.20286" operator="dilate" in="SourceAlpha" result="effect2_dropShadow_38_303"/>
<feOffset dy="3.3043"/>
<feGaussianBlur stdDeviation="2.75358"/>
<feColorMatrix type="matrix" values="0 0 0 0 0 0 0 0 0 0 0 0 0 0 0 0 0 0 0.15 0"/>
<feBlend mode="normal" in2="effect1_dropShadow_38_303" result="effect2_dropShadow_38_303"/>
<feBlend mode="normal" in="SourceGraphic" in2="effect2_dropShadow_38_303" result="shape"/>
</filter>
</defs>
</svg>
