<svg width="34" height="37" viewBox="0 0 34 37" fill="none" xmlns="http://www.w3.org/2000/svg">
<circle cx="17.2343" cy="16" r="15.4" fill="#FEF3C7" stroke="#FDFDFD" stroke-width="1.2"/>
<g filter="url(#filter0_dd_113_411)">
<path d="M16.2377 23.3897C14.784 23.3897 13.4949 23.0743 12.3703 22.4434C11.2595 21.7989 10.3886 20.9211 9.75775 19.8103C9.12689 18.6857 8.81146 17.3966 8.81146 15.9429C8.81146 14.8594 8.98975 13.8651 9.34632 12.96C9.7166 12.0411 10.224 11.2526 10.8686 10.5943C11.5269 9.92228 12.3017 9.408 13.1932 9.05142C14.0983 8.68114 15.0926 8.496 16.176 8.496C17.6297 8.496 18.9052 8.81828 20.0023 9.46285C21.1132 10.0937 21.984 10.9714 22.6149 12.096C23.2457 13.2069 23.5612 14.496 23.5612 15.9634C23.5612 17.4034 23.2457 18.6857 22.6149 19.8103C21.9977 20.9211 21.1337 21.7989 20.0229 22.4434C18.9257 23.0743 17.664 23.3897 16.2377 23.3897ZM21.6275 24.0069L16.32 18.6171L18.1303 16.9097L23.3966 22.2583L21.6275 24.0069ZM16.2377 20.8183C17.1155 20.8183 17.8835 20.6126 18.5417 20.2011C19.2137 19.776 19.7349 19.2 20.1052 18.4731C20.4892 17.7463 20.6812 16.9029 20.6812 15.9429C20.6812 14.9966 20.4892 14.16 20.1052 13.4331C19.7212 12.6926 19.1932 12.1166 18.5212 11.7051C17.8492 11.28 17.0675 11.0674 16.176 11.0674C15.312 11.0674 14.5372 11.28 13.8515 11.7051C13.1795 12.1166 12.6515 12.6926 12.2675 13.4331C11.8835 14.16 11.6915 14.9966 11.6915 15.9429C11.6915 16.9029 11.8835 17.7463 12.2675 18.4731C12.6515 19.2 13.1863 19.776 13.872 20.2011C14.5577 20.6126 15.3463 20.8183 16.2377 20.8183Z" fill="black"/>
</g>
<defs>
<filter id="filter0_dd_113_411" x="6.4373e-06" y="3.46088" width="32.3726" height="33.1338" filterUnits="userSpaceOnUse" color-interpolation-filters="sRGB">
<feFlood flood-opacity="0" result="BackgroundImageFix"/>
<feColorMatrix in="SourceAlpha" type="matrix" values="0 0 0 0 0 0 0 0 0 0 0 0 0 0 0 0 0 0 127 0" result="hardAlpha"/>
<feOffset dy="1.25878"/>
<feGaussianBlur stdDeviation="0.944085"/>
<feColorMatrix type="matrix" values="0 0 0 0 0 0 0 0 0 0 0 0 0 0 0 0 0 0 0.3 0"/>
<feBlend mode="normal" in2="BackgroundImageFix" result="effect1_dropShadow_113_411"/>
<feColorMatrix in="SourceAlpha" type="matrix" values="0 0 0 0 0 0 0 0 0 0 0 0 0 0 0 0 0 0 127 0" result="hardAlpha"/>
<feMorphology radius="2.51756" operator="dilate" in="SourceAlpha" result="effect2_dropShadow_113_411"/>
<feOffset dy="3.77634"/>
<feGaussianBlur stdDeviation="3.14695"/>
<feColorMatrix type="matrix" values="0 0 0 0 0 0 0 0 0 0 0 0 0 0 0 0 0 0 0.15 0"/>
<feBlend mode="normal" in2="effect1_dropShadow_113_411" result="effect2_dropShadow_113_411"/>
<feBlend mode="normal" in="SourceGraphic" in2="effect2_dropShadow_113_411" result="shape"/>
</filter>
</defs>
</svg>
