<svg width="24" height="24" viewBox="0 0 24 24" fill="none" xmlns="http://www.w3.org/2000/svg">
<path d="M6.00468 4.95261C5.99211 4.83242 6.00493 4.71094 6.0423 4.59602C6.07967 4.4811 6.14076 4.37532 6.22162 4.28551C6.30247 4.19571 6.40129 4.12389 6.51167 4.0747C6.62205 4.02552 6.74153 4.00007 6.86237 4H17.027C17.1479 4.00006 17.2674 4.02553 17.3779 4.07476C17.4883 4.124 17.5872 4.1959 17.6681 4.2858C17.7489 4.3757 17.81 4.48159 17.8473 4.59662C17.8846 4.71164 17.8973 4.83322 17.8846 4.95347L16.423 18.85C16.3782 19.2741 16.1779 19.6666 15.8609 19.9518C15.5438 20.237 15.1323 20.3947 14.7058 20.3945H9.18349C8.75552 20.3969 8.34195 20.2401 8.02305 19.9547C7.70415 19.6693 7.50268 19.2756 7.45775 18.85L6.00468 4.95261Z" stroke="black" stroke-width="1.72574" stroke-linecap="round" stroke-linejoin="round"/>
<path d="M6.76745 11.7658C7.51424 11.2057 8.42256 10.9029 9.35605 10.9029C10.2895 10.9029 11.1979 11.2057 11.9447 11.7658C12.6915 12.3259 13.5998 12.6287 14.5333 12.6287C15.4668 12.6287 16.3751 12.3259 17.1219 11.7658" stroke="black" stroke-width="1.72574" stroke-linecap="round" stroke-linejoin="round"/>
</svg>
